<svg width="25" height="23" viewBox="0 0 25 23" fill="none" xmlns="http://www.w3.org/2000/svg">
<path fill-rule="evenodd" clip-rule="evenodd" d="M8.72619 22.3333C12.3885 22.3333 15.5238 20.2979 16.8182 17.4126C16.834 17.3774 11.6215 18.7672 11.7877 18.2759C11.8619 18.0565 15.0572 16.8892 17.3852 15.5277C18.7232 14.7451 19.3394 13.0885 19.3394 13.0885C19.3394 13.0885 17.0851 14.183 15.9455 14.4606C13.649 15.0202 11.6275 14.96 11.6275 14.9017C11.6275 14.7756 14.9842 14.1378 19.6496 11.2948C21.8441 9.95751 22.4402 7.65409 22.4402 7.65409C22.4402 7.65409 20.0275 9.0912 18.569 9.56567C15.1102 10.6908 11.9539 11.0299 11.9539 10.8776C11.9539 10.5517 14.7316 9.78784 17.6766 8.36083C19.2078 7.61889 20.534 6.64955 22.0707 5.57157C24.5853 3.80784 25 0.666626 25 0.666626C25 0.666626 22.5199 2.26624 21.3096 2.79746C16.3155 4.98944 11.9057 6.13924 8.72619 6.38817C3.92657 6.76395 0 10.1127 0 14.4606C0 18.8086 3.90684 22.3333 8.72619 22.3333Z" fill="#FFFFFF"/>
</svg>
