<svg width="25" height="19" viewBox="0 0 25 19" fill="none" xmlns="http://www.w3.org/2000/svg">
<path fill-rule="evenodd" clip-rule="evenodd" d="M5.50607 18.492C5.49929 18.492 5.49455 18.4853 5.4968 18.4789L11.8794 0.444043C11.8808 0.440122 11.8845 0.4375 11.8887 0.4375H18.7023C18.7064 0.4375 18.7102 0.440142 18.7115 0.444087L24.9995 18.4789C25.0017 18.4853 24.9969 18.492 24.9902 18.492H5.69787H5.50607ZM0.00982943 18.5625C0.00297424 18.5625 -0.00177174 18.5557 0.00063285 18.5493L4.75356 5.86018C4.755 5.85632 4.75867 5.85378 4.76276 5.85378H8.89251C8.89935 5.85378 8.90409 5.86057 8.90174 5.86696L4.30579 18.5561C4.30439 18.5599 4.30069 18.5625 4.29656 18.5625H0.00982943Z" fill="#FFFFFF"/>
</svg>
