<svg width="25" height="23" viewBox="0 0 25 23" fill="none" xmlns="http://www.w3.org/2000/svg">
<path d="M12.1278 3.65036L5.91863 0.575195L6.10643 7.4483L11.969 10.3518L12.1278 3.65036Z" fill="#FFFFFF"/>
<path d="M19.0212 7.53199L18.9423 0.603475L12.9036 3.89111L12.9781 10.4329L19.0212 7.53199Z" fill="#FFFFFF"/>
<path d="M19.0177 14.9429L25 11.5211L19.0146 8.37312L13.0319 11.5157L19.0177 14.9429Z" fill="#FFFFFF"/>
<path d="M11.9681 11.5211L5.98583 14.9429L0 11.5157L5.98272 8.37312L11.9681 11.5211Z" fill="#FFFFFF"/>
<path d="M19.1113 22.3623L12.9021 19.2871L13.0609 12.5856L18.9235 15.4892L19.1113 22.3623Z" fill="#FFFFFF"/>
<path d="M6.05413 15.4963L6.13306 22.4248L12.1718 19.1372L12.0973 12.5954L6.05413 15.4963Z" fill="#FFFFFF"/>
</svg>
