<svg width="25" height="21" viewBox="0 0 25 21" fill="none" xmlns="http://www.w3.org/2000/svg">
<path fill-rule="evenodd" clip-rule="evenodd" d="M19.3027 9.97354C19.3013 9.97159 19.3007 9.96915 19.3011 9.96677L20.8928 0.685864C20.8935 0.68159 20.8972 0.678467 20.9015 0.678467H21.4053C21.4092 0.678467 21.4126 0.680986 21.4137 0.684689L24.9996 12.0383C25.0007 12.0418 24.9995 12.0457 24.9966 12.048L22.3527 14.1122C22.3487 14.1153 22.343 14.1145 22.3401 14.1105L19.3027 9.97354ZM0 16.1261C0 16.1299 0.00247515 16.1334 0.00613433 16.1346L5.45624 17.9166C5.45887 17.9175 5.46179 17.917 5.46408 17.9155L17.6463 9.50512C17.6484 9.50371 17.6498 9.50152 17.6501 9.49908L18.9565 0.733451C18.9573 0.728071 18.9531 0.723237 18.9477 0.723237H8.15724C8.15456 0.723237 8.15208 0.724417 8.15037 0.726458L0.00204781 10.5562C0.000724087 10.5578 0 10.5598 0 10.5619V16.1261ZM7.72732 18.3706L13.6815 20.321C13.6841 20.3219 13.6871 20.3215 13.6894 20.3198L20.7782 15.235C20.7821 15.2322 20.7831 15.2268 20.7804 15.2228L18.123 11.2683C18.1203 11.2642 18.1147 11.2631 18.1106 11.2659L7.72732 18.3706Z" fill="#FFFFFF"/>
</svg>
