<svg width="25" height="23" viewBox="0 0 25 23" fill="none" xmlns="http://www.w3.org/2000/svg">
<path fill-rule="evenodd" clip-rule="evenodd" d="M0.00249564 11.5152C-0.000830304 11.5096 -0.000831974 11.5026 0.00249119 11.4968L6.28883 0.756313C6.2921 0.750742 6.29811 0.747314 6.30455 0.747314H18.7644C18.7709 0.747314 18.7769 0.750772 18.7802 0.756392L24.9975 11.4969C25.0008 11.5026 25.0008 11.5095 24.9975 11.5151L18.7802 22.2436C18.7769 22.2492 18.7709 22.2527 18.7644 22.2527H6.30455C6.29811 22.2527 6.2921 22.2493 6.28883 22.2437L0.00249564 11.5152ZM18.2919 11.5C18.2919 14.6977 15.6996 17.2899 12.502 17.2899C9.30431 17.2899 6.71207 14.6977 6.71207 11.5C6.71207 8.3023 9.30431 5.71011 12.502 5.71011C15.6996 5.71011 18.2919 8.3023 18.2919 11.5Z" fill="#FFFFFF"/>
</svg>
