<svg width="17" height="25" viewBox="0 0 17 25" fill="none" xmlns="http://www.w3.org/2000/svg">
<path fill-rule="evenodd" clip-rule="evenodd" d="M16.61 16.9204C16.61 21.3827 12.9791 25 8.5 25C4.02094 25 0.389969 21.3827 0.389969 16.9204C0.389969 12.5806 8.06131 0.661548 8.48203 0.011124C8.49165 -0.0037081 8.5084 -0.00370797 8.51797 0.0111242C8.93869 0.661548 16.61 12.5806 16.61 16.9204ZM7.14808 22.4097C3.03267 21.5093 3.7369 16.9505 3.7369 16.9505C3.7369 16.9505 4.86068 19.7024 7.5878 20.5939C10.3149 21.4853 13.6105 20.1779 13.6105 20.1779C13.6105 20.1779 11.2635 23.3102 7.14808 22.4097Z" fill="#FFFFFF"/>
</svg>
